<svg xmlns="http://www.w3.org/2000/svg" width="1200" height="630" viewBox="0 0 1200 630">
  <rect width="1200" height="630" fill="#f7f4ea"/>
  <g opacity=".12" fill="#25251f">
    <circle cx="20" cy="20" r="2"/><circle cx="44" cy="20" r="2"/><circle cx="68" cy="20" r="2"/>
  </g>
  <rect x="68" y="66" width="34" height="34" fill="#25251f"/>
  <rect x="75" y="73" width="8" height="8" fill="#c7ff48"/>
  <rect x="87" y="73" width="8" height="8" fill="#ff775f"/>
  <rect x="75" y="85" width="8" height="8" fill="#74c0fc"/>
  <rect x="87" y="85" width="8" height="8" fill="#c7ff48"/>
  <text x="116" y="94" fill="#25251f" font-family="monospace" font-size="30" font-weight="700">PICO DOT</text>
  <text x="68" y="235" fill="#25251f" font-family="Arial, sans-serif" font-size="76" font-weight="900">PHOTO TO PIXEL,</text>
  <rect x="64" y="264" width="685" height="78" fill="#c7ff48"/>
  <text x="68" y="330" fill="#25251f" font-family="Arial, sans-serif" font-size="76" font-weight="900">JUST LIKE THAT.</text>
  <text x="72" y="395" fill="#6e6d64" font-family="Arial, sans-serif" font-size="26">사진의 색감과 무늬를 살린 무료 픽셀 아트 변환기</text>
  <g transform="translate(840 105)">
    <rect width="270" height="360" rx="24" fill="#fffdf7" stroke="#25251f" stroke-width="8"/>
    <rect x="25" y="25" width="220" height="290" fill="#74c0fc"/>
    <rect x="55" y="115" width="160" height="160" fill="#d59562" stroke="#25251f" stroke-width="7"/>
    <path d="M55 135L90 70l40 65M140 135l42-65 33 65" fill="#ff775f" stroke="#25251f" stroke-width="7"/>
    <rect x="86" y="178" width="28" height="18" fill="#c7ff48" stroke="#25251f" stroke-width="5"/>
    <rect x="156" y="178" width="28" height="18" fill="#c7ff48" stroke="#25251f" stroke-width="5"/>
    <rect x="127" y="220" width="18" height="14" fill="#ff775f"/>
  </g>
</svg>
